<mxfile host="app.diagrams.net" modified="2023-08-08T09:17:49.782Z" agent="Mozilla/5.0 (Windows NT 10.0; Win64; x64; rv:109.0) Gecko/20100101 Firefox/116.0" version="21.6.6" etag="PG_MtXWgcZbl4BPE-dFZ" type="github">
  <diagram name="Sivu-1" id="SrUlYPCejy5Qq8B8iZOH">
    <mxGraphModel>
      <root>
        <mxCell id="0" />
        <mxCell id="1" parent="0" />
      </root>
    </mxGraphModel>
  </diagram>
</mxfile>
